<svg width="1000" height="420" viewBox="0 0 1000 420" fill="none" xmlns="http://www.w3.org/2000/svg">
  <defs>
    <filter id="glowSmall" x="-50%" y="-50%" width="200%" height="200%">
      <feGaussianBlur stdDeviation="2.2" result="blur"/>
      <feMerge>
        <feMergeNode in="blur"/>
        <feMergeNode in="SourceGraphic"/>
      </feMerge>
    </filter>

    <filter id="glowBig" x="-80%" y="-80%" width="260%" height="260%">
      <feGaussianBlur stdDeviation="4.5" result="blur"/>
      <feMerge>
        <feMergeNode in="blur"/>
        <feMergeNode in="SourceGraphic"/>
      </feMerge>
    </filter>
  </defs>

  <!-- main lines -->
  <g stroke="#6D54FF" stroke-opacity="0.16" stroke-width="1.5">
    <line x1="22" y1="220" x2="122" y2="194"/>
    <line x1="122" y1="194" x2="174" y2="257"/>
    <line x1="122" y1="194" x2="206" y2="170"/>
    <line x1="122" y1="194" x2="250" y2="220"/>
    <line x1="174" y1="257" x2="250" y2="220"/>
    <line x1="174" y1="257" x2="284" y2="137"/>
    <line x1="174" y1="257" x2="288" y2="304"/>
    <line x1="206" y1="170" x2="284" y2="137"/>
    <line x1="206" y1="170" x2="327" y2="182"/>
    <line x1="250" y1="220" x2="327" y2="182"/>
    <line x1="250" y1="220" x2="390" y2="223"/>
    <line x1="284" y1="137" x2="327" y2="182"/>
    <line x1="284" y1="137" x2="417" y2="110"/>
    <line x1="284" y1="137" x2="390" y2="223"/>
    <line x1="327" y1="182" x2="417" y2="110"/>
    <line x1="327" y1="182" x2="470" y2="167"/>
    <line x1="390" y1="223" x2="470" y2="167"/>
    <line x1="390" y1="223" x2="474" y2="273"/>
    <line x1="417" y1="110" x2="470" y2="167"/>
    <line x1="417" y1="110" x2="588" y2="74"/>
    <line x1="470" y1="167" x2="588" y2="74"/>
    <line x1="470" y1="167" x2="634" y2="143"/>
    <line x1="470" y1="167" x2="474" y2="273"/>
    <line x1="474" y1="273" x2="634" y2="143"/>
    <line x1="474" y1="273" x2="610" y2="258"/>
    <line x1="588" y1="74" x2="634" y2="143"/>
    <line x1="588" y1="74" x2="728" y2="106"/>
    <line x1="634" y1="143" x2="728" y2="106"/>
    <line x1="634" y1="143" x2="734" y2="224"/>
    <line x1="610" y1="258" x2="734" y2="224"/>
    <line x1="610" y1="258" x2="680" y2="296"/>
    <line x1="728" y1="106" x2="734" y2="224"/>
    <line x1="728" y1="106" x2="855" y2="168"/>
    <line x1="734" y1="224" x2="855" y2="168"/>
    <line x1="734" y1="224" x2="845" y2="263"/>
    <line x1="855" y1="168" x2="930" y2="128"/>
    <line x1="855" y1="168" x2="978" y2="215"/>
    <line x1="845" y1="263" x2="978" y2="215"/>
  </g>

  <!-- secondary lines -->
  <g stroke="#C788FF" stroke-opacity="0.10" stroke-width="1">
    <line x1="22" y1="220" x2="206" y2="170"/>
    <line x1="122" y1="194" x2="284" y2="137"/>
    <line x1="206" y1="170" x2="250" y2="220"/>
    <line x1="250" y1="220" x2="288" y2="304"/>
    <line x1="288" y1="304" x2="390" y2="223"/>
    <line x1="327" y1="182" x2="474" y2="273"/>
    <line x1="390" y1="223" x2="588" y2="74"/>
    <line x1="417" y1="110" x2="474" y2="273"/>
    <line x1="474" y1="273" x2="728" y2="106"/>
    <line x1="588" y1="74" x2="734" y2="224"/>
    <line x1="634" y1="143" x2="845" y2="263"/>
    <line x1="610" y1="258" x2="855" y2="168"/>
    <line x1="680" y1="296" x2="855" y2="168"/>
    <line x1="734" y1="224" x2="930" y2="128"/>
  </g>

  <!-- small background dots -->
  <g fill="#A66BFF" fill-opacity="0.35">
    <circle cx="84" cy="208" r="2.2"/>
    <circle cx="154" cy="188" r="2.4"/>
    <circle cx="224" cy="204" r="2.0"/>
    <circle cx="304" cy="164" r="2.1"/>
    <circle cx="348" cy="210" r="2.0"/>
    <circle cx="436" cy="146" r="2.1"/>
    <circle cx="522" cy="130" r="2.2"/>
    <circle cx="555" cy="228" r="2.1"/>
    <circle cx="618" cy="112" r="2.0"/>
    <circle cx="666" cy="192" r="2.1"/>
    <circle cx="706" cy="150" r="2.0"/>
    <circle cx="785" cy="155" r="2.2"/>
    <circle cx="818" cy="214" r="2.1"/>
    <circle cx="898" cy="188" r="2.0"/>
  </g>

  <!-- major nodes -->
  <g filter="url(#glowSmall)">
    <circle cx="22" cy="220" r="3.2" fill="#D494FF" fill-opacity="0.72"/>
    <circle cx="122" cy="194" r="4.6" fill="#D494FF" fill-opacity="0.86"/>
    <circle cx="174" cy="257" r="5.2" fill="#DA9BFF" fill-opacity="0.92"/>
    <circle cx="206" cy="170" r="3.6" fill="#C788FF" fill-opacity="0.76"/>
    <circle cx="250" cy="220" r="4.2" fill="#D494FF" fill-opacity="0.82"/>
    <circle cx="284" cy="137" r="5.6" fill="#DF9EFF" fill-opacity="0.96"/>
    <circle cx="327" cy="182" r="2.8" fill="#C788FF" fill-opacity="0.74"/>
    <circle cx="390" cy="223" r="3.0" fill="#B977FF" fill-opacity="0.72"/>
    <circle cx="417" cy="110" r="3.4" fill="#C788FF" fill-opacity="0.76"/>
    <circle cx="470" cy="167" r="4.6" fill="#D494FF" fill-opacity="0.84"/>
    <circle cx="474" cy="273" r="5.4" fill="#D89AFF" fill-opacity="0.92"/>
    <circle cx="588" cy="74" r="3.2" fill="#C788FF" fill-opacity="0.76"/>
    <circle cx="634" cy="143" r="4.1" fill="#D494FF" fill-opacity="0.80"/>
    <circle cx="610" cy="258" r="4.0" fill="#C788FF" fill-opacity="0.78"/>
    <circle cx="680" cy="296" r="3.1" fill="#B977FF" fill-opacity="0.72"/>
    <circle cx="728" cy="106" r="5.0" fill="#D99CFF" fill-opacity="0.90"/>
    <circle cx="734" cy="224" r="5.8" fill="#E1A7FF" fill-opacity="0.96"/>
    <circle cx="845" cy="263" r="4.2" fill="#CE8EFF" fill-opacity="0.82"/>
    <circle cx="855" cy="168" r="5.0" fill="#D89AFF" fill-opacity="0.88"/>
    <circle cx="930" cy="128" r="3.5" fill="#C788FF" fill-opacity="0.78"/>
    <circle cx="978" cy="215" r="4.7" fill="#D494FF" fill-opacity="0.84"/>
  </g>

  <!-- strongest glow nodes -->
  <g filter="url(#glowBig)">
    <circle cx="174" cy="257" r="3.2" fill="#F3C1FF" fill-opacity="0.95"/>
    <circle cx="284" cy="137" r="3.5" fill="#F0BEFF" fill-opacity="0.95"/>
    <circle cx="470" cy="167" r="3.0" fill="#F3C8FF" fill-opacity="0.92"/>
    <circle cx="734" cy="224" r="3.6" fill="#F6D2FF" fill-opacity="0.98"/>
    <circle cx="855" cy="168" r="3.1" fill="#F0BEFF" fill-opacity="0.94"/>
  </g>
</svg>
