<svg width="1000" height="420" viewBox="0 0 1000 420" fill="none" xmlns="http://www.w3.org/2000/svg">
  <defs>
    <filter id="glowSmall" x="-50%" y="-50%" width="200%" height="200%">
      <feGaussianBlur stdDeviation="2.1" result="blur"/>
      <feMerge>
        <feMergeNode in="blur"/>
        <feMergeNode in="SourceGraphic"/>
      </feMerge>
    </filter>

    <filter id="glowBig" x="-80%" y="-80%" width="260%" height="260%">
      <feGaussianBlur stdDeviation="4.2" result="blur"/>
      <feMerge>
        <feMergeNode in="blur"/>
        <feMergeNode in="SourceGraphic"/>
      </feMerge>
    </filter>

    <radialGradient id="nodeBlue" cx="50%" cy="50%" r="50%">
      <stop offset="0%" stop-color="#EAF8FF"/>
      <stop offset="42%" stop-color="#67C7FF"/>
      <stop offset="100%" stop-color="#67C7FF" stop-opacity="0.12"/>
    </radialGradient>

    <radialGradient id="nodeRed" cx="50%" cy="50%" r="50%">
      <stop offset="0%" stop-color="#FFE8EC"/>
      <stop offset="44%" stop-color="#FF4D5F"/>
      <stop offset="100%" stop-color="#FF4D5F" stop-opacity="0.10"/>
    </radialGradient>

    <radialGradient id="nodeWhite" cx="50%" cy="50%" r="50%">
      <stop offset="0%" stop-color="#FFFFFF"/>
      <stop offset="48%" stop-color="#D8DCE6"/>
      <stop offset="100%" stop-color="#D8DCE6" stop-opacity="0.08"/>
    </radialGradient>
  </defs>

  <g stroke="#FFFFFF" stroke-opacity="0.105" stroke-width="1.1">
    <line x1="18" y1="236" x2="92" y2="207"/>
    <line x1="92" y1="207" x2="158" y2="250"/>
    <line x1="92" y1="207" x2="180" y2="172"/>
    <line x1="92" y1="207" x2="242" y2="218"/>
    <line x1="158" y1="250" x2="242" y2="218"/>
    <line x1="158" y1="250" x2="296" y2="135"/>
    <line x1="158" y1="250" x2="286" y2="315"/>
    <line x1="180" y1="172" x2="296" y2="135"/>
    <line x1="180" y1="172" x2="338" y2="188"/>
    <line x1="242" y1="218" x2="338" y2="188"/>
    <line x1="242" y1="218" x2="402" y2="232"/>
    <line x1="296" y1="135" x2="338" y2="188"/>
    <line x1="296" y1="135" x2="448" y2="106"/>
    <line x1="296" y1="135" x2="402" y2="232"/>
    <line x1="338" y1="188" x2="448" y2="106"/>
    <line x1="338" y1="188" x2="496" y2="162"/>
    <line x1="402" y1="232" x2="496" y2="162"/>
    <line x1="402" y1="232" x2="494" y2="286"/>
    <line x1="448" y1="106" x2="496" y2="162"/>
    <line x1="448" y1="106" x2="604" y2="72"/>
    <line x1="496" y1="162" x2="604" y2="72"/>
    <line x1="496" y1="162" x2="650" y2="145"/>
    <line x1="496" y1="162" x2="494" y2="286"/>
    <line x1="494" y1="286" x2="650" y2="145"/>
    <line x1="494" y1="286" x2="622" y2="270"/>
    <line x1="604" y1="72" x2="650" y2="145"/>
    <line x1="604" y1="72" x2="748" y2="107"/>
    <line x1="650" y1="145" x2="748" y2="107"/>
    <line x1="650" y1="145" x2="746" y2="226"/>
    <line x1="622" y1="270" x2="746" y2="226"/>
    <line x1="622" y1="270" x2="694" y2="304"/>
    <line x1="748" y1="107" x2="746" y2="226"/>
    <line x1="748" y1="107" x2="864" y2="170"/>
    <line x1="746" y1="226" x2="864" y2="170"/>
    <line x1="746" y1="226" x2="846" y2="270"/>
    <line x1="864" y1="170" x2="938" y2="124"/>
    <line x1="864" y1="170" x2="982" y2="224"/>
    <line x1="846" y1="270" x2="982" y2="224"/>
  </g>

  <g stroke="#67C7FF" stroke-opacity="0.13" stroke-width="1">
    <line x1="18" y1="236" x2="180" y2="172"/>
    <line x1="92" y1="207" x2="296" y2="135"/>
    <line x1="180" y1="172" x2="242" y2="218"/>
    <line x1="242" y1="218" x2="286" y2="315"/>
    <line x1="286" y1="315" x2="402" y2="232"/>
    <line x1="338" y1="188" x2="494" y2="286"/>
    <line x1="402" y1="232" x2="604" y2="72"/>
    <line x1="448" y1="106" x2="494" y2="286"/>
    <line x1="494" y1="286" x2="748" y2="107"/>
    <line x1="604" y1="72" x2="746" y2="226"/>
    <line x1="650" y1="145" x2="846" y2="270"/>
    <line x1="622" y1="270" x2="864" y2="170"/>
    <line x1="694" y1="304" x2="864" y2="170"/>
    <line x1="746" y1="226" x2="938" y2="124"/>
  </g>

  <g stroke="#FF4D5F" stroke-opacity="0.105" stroke-width="1">
    <line x1="92" y1="207" x2="338" y2="188"/>
    <line x1="158" y1="250" x2="448" y2="106"/>
    <line x1="296" y1="135" x2="496" y2="162"/>
    <line x1="496" y1="162" x2="748" y2="107"/>
    <line x1="650" y1="145" x2="864" y2="170"/>
    <line x1="746" y1="226" x2="982" y2="224"/>
  </g>

  <g fill="#FFFFFF" fill-opacity="0.22">
    <circle cx="54" cy="220" r="2.0"/>
    <circle cx="126" cy="194" r="1.8"/>
    <circle cx="210" cy="202" r="2.2"/>
    <circle cx="266" cy="166" r="1.9"/>
    <circle cx="318" cy="214" r="2.0"/>
    <circle cx="376" cy="160" r="1.9"/>
    <circle cx="430" cy="146" r="2.2"/>
    <circle cx="536" cy="132" r="2.1"/>
    <circle cx="560" cy="232" r="2.0"/>
    <circle cx="632" cy="112" r="1.8"/>
    <circle cx="678" cy="192" r="2.2"/>
    <circle cx="718" cy="152" r="2.0"/>
    <circle cx="790" cy="156" r="1.9"/>
    <circle cx="820" cy="216" r="2.1"/>
    <circle cx="900" cy="190" r="2.0"/>
    <circle cx="952" cy="185" r="2.2"/>
  </g>

  <g filter="url(#glowSmall)">
    <circle cx="18" cy="236" r="3.2" fill="url(#nodeWhite)" opacity="0.70"/>
    <circle cx="92" cy="207" r="4.8" fill="url(#nodeBlue)" opacity="0.78"/>
    <circle cx="158" cy="250" r="5.4" fill="url(#nodeRed)" opacity="0.76"/>
    <circle cx="180" cy="172" r="3.8" fill="url(#nodeWhite)" opacity="0.66"/>
    <circle cx="242" cy="218" r="4.4" fill="url(#nodeBlue)" opacity="0.76"/>
    <circle cx="286" cy="315" r="3.6" fill="url(#nodeWhite)" opacity="0.58"/>
    <circle cx="296" cy="135" r="5.8" fill="url(#nodeRed)" opacity="0.76"/>
    <circle cx="338" cy="188" r="3.0" fill="url(#nodeWhite)" opacity="0.62"/>
    <circle cx="402" cy="232" r="3.2" fill="url(#nodeBlue)" opacity="0.70"/>
    <circle cx="448" cy="106" r="3.8" fill="url(#nodeWhite)" opacity="0.66"/>
    <circle cx="496" cy="162" r="5.0" fill="url(#nodeBlue)" opacity="0.78"/>
    <circle cx="494" cy="286" r="5.6" fill="url(#nodeRed)" opacity="0.72"/>
    <circle cx="604" cy="72" r="3.4" fill="url(#nodeWhite)" opacity="0.64"/>
    <circle cx="650" cy="145" r="4.4" fill="url(#nodeBlue)" opacity="0.74"/>
    <circle cx="622" cy="270" r="4.2" fill="url(#nodeWhite)" opacity="0.64"/>
    <circle cx="694" cy="304" r="3.4" fill="url(#nodeRed)" opacity="0.64"/>
    <circle cx="748" cy="107" r="5.4" fill="url(#nodeBlue)" opacity="0.78"/>
    <circle cx="746" cy="226" r="6.0" fill="url(#nodeRed)" opacity="0.78"/>
    <circle cx="846" cy="270" r="4.4" fill="url(#nodeWhite)" opacity="0.66"/>
    <circle cx="864" cy="170" r="5.2" fill="url(#nodeBlue)" opacity="0.76"/>
    <circle cx="938" cy="124" r="3.8" fill="url(#nodeWhite)" opacity="0.66"/>
    <circle cx="982" cy="224" r="5.0" fill="url(#nodeRed)" opacity="0.72"/>
  </g>

  <g filter="url(#glowBig)">
    <circle cx="158" cy="250" r="2.8" fill="#FFFFFF" fill-opacity="0.72"/>
    <circle cx="296" cy="135" r="3.0" fill="#FFFFFF" fill-opacity="0.72"/>
    <circle cx="496" cy="162" r="2.7" fill="#FFFFFF" fill-opacity="0.68"/>
    <circle cx="746" cy="226" r="3.3" fill="#FFFFFF" fill-opacity="0.74"/>
    <circle cx="864" cy="170" r="2.9" fill="#FFFFFF" fill-opacity="0.68"/>
  </g>
</svg>
